<mxfile host="app.diagrams.net" modified="2022-07-25T18:07:46.174Z" agent="5.0 (Windows NT 10.0; Win64; x64) AppleWebKit/537.36 (KHTML, like Gecko) Chrome/103.0.0.0 Safari/537.36" etag="tzOBN-M6FJHtGh0HsT_z" version="20.2.0" type="github">
  <diagram id="C5RBs43oDa-KdzZeNtuy" name="Page-1">
    <mxGraphModel dx="1422" dy="737" grid="1" gridSize="10" guides="1" tooltips="1" connect="1" arrows="1" fold="1" page="1" pageScale="1" pageWidth="827" pageHeight="1169" math="0" shadow="0">
      <root>
        <mxCell id="WIyWlLk6GJQsqaUBKTNV-0" />
        <mxCell id="WIyWlLk6GJQsqaUBKTNV-1" parent="WIyWlLk6GJQsqaUBKTNV-0" />
        <mxCell id="sYzgEpTlX_4qCBjDsul3-14" style="edgeStyle=orthogonalEdgeStyle;rounded=0;orthogonalLoop=1;jettySize=auto;html=1;entryX=0.5;entryY=0.229;entryDx=0;entryDy=0;entryPerimeter=0;exitX=0.5;exitY=1;exitDx=0;exitDy=0;" edge="1" parent="WIyWlLk6GJQsqaUBKTNV-1" source="sYzgEpTlX_4qCBjDsul3-0" target="sYzgEpTlX_4qCBjDsul3-1">
          <mxGeometry relative="1" as="geometry">
            <mxPoint x="220" y="170" as="sourcePoint" />
            <mxPoint x="220" y="190" as="targetPoint" />
          </mxGeometry>
        </mxCell>
        <mxCell id="sYzgEpTlX_4qCBjDsul3-0" value="INICIO" style="ellipse;whiteSpace=wrap;html=1;" vertex="1" parent="WIyWlLk6GJQsqaUBKTNV-1">
          <mxGeometry x="160" y="80" width="120" height="80" as="geometry" />
        </mxCell>
        <mxCell id="sYzgEpTlX_4qCBjDsul3-9" style="edgeStyle=orthogonalEdgeStyle;rounded=0;orthogonalLoop=1;jettySize=auto;html=1;exitX=0.5;exitY=1;exitDx=0;exitDy=0;entryX=0.019;entryY=0.391;entryDx=0;entryDy=0;entryPerimeter=0;" edge="1" parent="WIyWlLk6GJQsqaUBKTNV-1" source="sYzgEpTlX_4qCBjDsul3-1" target="sYzgEpTlX_4qCBjDsul3-6">
          <mxGeometry relative="1" as="geometry">
            <mxPoint x="210" y="290" as="targetPoint" />
            <Array as="points">
              <mxPoint x="220" y="290" />
            </Array>
          </mxGeometry>
        </mxCell>
        <mxCell id="sYzgEpTlX_4qCBjDsul3-1" value="" style="shape=manualInput;whiteSpace=wrap;html=1;" vertex="1" parent="WIyWlLk6GJQsqaUBKTNV-1">
          <mxGeometry x="160" y="183" width="120" height="70" as="geometry" />
        </mxCell>
        <mxCell id="sYzgEpTlX_4qCBjDsul3-2" value="Lista participantes&amp;nbsp;" style="text;html=1;align=center;verticalAlign=middle;resizable=0;points=[];autosize=1;strokeColor=none;fillColor=none;" vertex="1" parent="WIyWlLk6GJQsqaUBKTNV-1">
          <mxGeometry x="160" y="210" width="120" height="30" as="geometry" />
        </mxCell>
        <mxCell id="sYzgEpTlX_4qCBjDsul3-13" style="edgeStyle=orthogonalEdgeStyle;rounded=0;orthogonalLoop=1;jettySize=auto;html=1;exitX=1;exitY=0.5;exitDx=0;exitDy=0;" edge="1" parent="WIyWlLk6GJQsqaUBKTNV-1" source="sYzgEpTlX_4qCBjDsul3-6" target="sYzgEpTlX_4qCBjDsul3-8">
          <mxGeometry relative="1" as="geometry">
            <Array as="points">
              <mxPoint x="220" y="381" />
            </Array>
          </mxGeometry>
        </mxCell>
        <mxCell id="sYzgEpTlX_4qCBjDsul3-6" value="&lt;br&gt;" style="shape=offPageConnector;whiteSpace=wrap;html=1;rotation=90;size=0.38857142857142857;" vertex="1" parent="WIyWlLk6GJQsqaUBKTNV-1">
          <mxGeometry x="160" y="253" width="80" height="175" as="geometry" />
        </mxCell>
        <mxCell id="sYzgEpTlX_4qCBjDsul3-17" style="edgeStyle=orthogonalEdgeStyle;rounded=0;orthogonalLoop=1;jettySize=auto;html=1;exitX=0.5;exitY=1;exitDx=0;exitDy=0;" edge="1" parent="WIyWlLk6GJQsqaUBKTNV-1" source="sYzgEpTlX_4qCBjDsul3-8">
          <mxGeometry relative="1" as="geometry">
            <mxPoint x="220" y="560" as="targetPoint" />
          </mxGeometry>
        </mxCell>
        <mxCell id="sYzgEpTlX_4qCBjDsul3-19" style="edgeStyle=orthogonalEdgeStyle;rounded=0;orthogonalLoop=1;jettySize=auto;html=1;exitX=1;exitY=0.5;exitDx=0;exitDy=0;" edge="1" parent="WIyWlLk6GJQsqaUBKTNV-1" source="sYzgEpTlX_4qCBjDsul3-8">
          <mxGeometry relative="1" as="geometry">
            <mxPoint x="370" y="477" as="targetPoint" />
          </mxGeometry>
        </mxCell>
        <mxCell id="sYzgEpTlX_4qCBjDsul3-8" value="Idade &amp;gt;=18" style="rhombus;whiteSpace=wrap;html=1;shadow=0;fontFamily=Helvetica;fontSize=12;align=center;strokeWidth=1;spacing=6;spacingTop=-4;" vertex="1" parent="WIyWlLk6GJQsqaUBKTNV-1">
          <mxGeometry x="170" y="437" width="100" height="80" as="geometry" />
        </mxCell>
        <mxCell id="sYzgEpTlX_4qCBjDsul3-10" value="Qual a sua idade?" style="text;html=1;align=center;verticalAlign=middle;resizable=0;points=[];autosize=1;strokeColor=none;fillColor=none;" vertex="1" parent="WIyWlLk6GJQsqaUBKTNV-1">
          <mxGeometry x="150" y="325.5" width="120" height="30" as="geometry" />
        </mxCell>
        <mxCell id="sYzgEpTlX_4qCBjDsul3-16" value="N達o" style="text;html=1;align=center;verticalAlign=middle;resizable=0;points=[];autosize=1;strokeColor=none;fillColor=none;" vertex="1" parent="WIyWlLk6GJQsqaUBKTNV-1">
          <mxGeometry x="270" y="450" width="50" height="30" as="geometry" />
        </mxCell>
        <mxCell id="sYzgEpTlX_4qCBjDsul3-18" value="Sim" style="text;html=1;align=center;verticalAlign=middle;resizable=0;points=[];autosize=1;strokeColor=none;fillColor=none;" vertex="1" parent="WIyWlLk6GJQsqaUBKTNV-1">
          <mxGeometry x="230" y="515" width="40" height="30" as="geometry" />
        </mxCell>
        <mxCell id="sYzgEpTlX_4qCBjDsul3-23" style="edgeStyle=orthogonalEdgeStyle;rounded=0;orthogonalLoop=1;jettySize=auto;html=1;exitX=0.5;exitY=0;exitDx=0;exitDy=0;entryX=1.017;entryY=0.167;entryDx=0;entryDy=0;entryPerimeter=0;" edge="1" parent="WIyWlLk6GJQsqaUBKTNV-1" source="sYzgEpTlX_4qCBjDsul3-20" target="sYzgEpTlX_4qCBjDsul3-2">
          <mxGeometry relative="1" as="geometry">
            <mxPoint x="455" y="210" as="targetPoint" />
            <Array as="points">
              <mxPoint x="455" y="215" />
            </Array>
          </mxGeometry>
        </mxCell>
        <mxCell id="sYzgEpTlX_4qCBjDsul3-20" value="" style="shape=manualInput;whiteSpace=wrap;html=1;" vertex="1" parent="WIyWlLk6GJQsqaUBKTNV-1">
          <mxGeometry x="380" y="420" width="150" height="70" as="geometry" />
        </mxCell>
        <mxCell id="sYzgEpTlX_4qCBjDsul3-21" value="&lt;div style=&quot;text-align: start;&quot;&gt;&lt;span style=&quot;background-color: initial; font-size: 0px;&quot;&gt;&lt;font face=&quot;monospace&quot; color=&quot;rgba(0, 0, 0, 0)&quot;&gt;Nao&lt;/font&gt;&lt;/span&gt;&lt;/div&gt;" style="text;html=1;align=center;verticalAlign=middle;resizable=0;points=[];autosize=1;strokeColor=none;fillColor=none;" vertex="1" parent="WIyWlLk6GJQsqaUBKTNV-1">
          <mxGeometry x="430" y="450" width="20" height="30" as="geometry" />
        </mxCell>
        <mxCell id="sYzgEpTlX_4qCBjDsul3-22" value="N達o permitido pela idade" style="text;html=1;align=center;verticalAlign=middle;resizable=0;points=[];autosize=1;strokeColor=none;fillColor=none;" vertex="1" parent="WIyWlLk6GJQsqaUBKTNV-1">
          <mxGeometry x="380" y="450" width="160" height="30" as="geometry" />
        </mxCell>
        <mxCell id="sYzgEpTlX_4qCBjDsul3-26" style="edgeStyle=orthogonalEdgeStyle;rounded=0;orthogonalLoop=1;jettySize=auto;html=1;exitX=1;exitY=0.5;exitDx=0;exitDy=0;" edge="1" parent="WIyWlLk6GJQsqaUBKTNV-1" source="sYzgEpTlX_4qCBjDsul3-25">
          <mxGeometry relative="1" as="geometry">
            <mxPoint x="500" y="605" as="targetPoint" />
          </mxGeometry>
        </mxCell>
        <mxCell id="sYzgEpTlX_4qCBjDsul3-30" style="edgeStyle=orthogonalEdgeStyle;rounded=0;orthogonalLoop=1;jettySize=auto;html=1;exitX=0.5;exitY=1;exitDx=0;exitDy=0;" edge="1" parent="WIyWlLk6GJQsqaUBKTNV-1" source="sYzgEpTlX_4qCBjDsul3-25">
          <mxGeometry relative="1" as="geometry">
            <mxPoint x="220" y="720" as="targetPoint" />
          </mxGeometry>
        </mxCell>
        <mxCell id="sYzgEpTlX_4qCBjDsul3-25" value="O numero de participante e menor que 100?" style="rhombus;whiteSpace=wrap;html=1;shadow=0;fontFamily=Helvetica;fontSize=12;align=center;strokeWidth=1;spacing=6;spacingTop=-4;" vertex="1" parent="WIyWlLk6GJQsqaUBKTNV-1">
          <mxGeometry x="150" y="560" width="140" height="90" as="geometry" />
        </mxCell>
        <mxCell id="sYzgEpTlX_4qCBjDsul3-28" style="edgeStyle=orthogonalEdgeStyle;rounded=0;orthogonalLoop=1;jettySize=auto;html=1;exitX=0.5;exitY=1;exitDx=0;exitDy=0;" edge="1" parent="WIyWlLk6GJQsqaUBKTNV-1" source="sYzgEpTlX_4qCBjDsul3-27">
          <mxGeometry relative="1" as="geometry">
            <mxPoint x="260" y="910" as="targetPoint" />
            <Array as="points">
              <mxPoint x="575" y="910" />
            </Array>
          </mxGeometry>
        </mxCell>
        <mxCell id="sYzgEpTlX_4qCBjDsul3-27" value="N達o a mais vagas" style="shape=manualInput;whiteSpace=wrap;html=1;" vertex="1" parent="WIyWlLk6GJQsqaUBKTNV-1">
          <mxGeometry x="500" y="560" width="150" height="70" as="geometry" />
        </mxCell>
        <mxCell id="sYzgEpTlX_4qCBjDsul3-29" value="N達o" style="text;html=1;align=center;verticalAlign=middle;resizable=0;points=[];autosize=1;strokeColor=none;fillColor=none;" vertex="1" parent="WIyWlLk6GJQsqaUBKTNV-1">
          <mxGeometry x="330" y="580" width="50" height="30" as="geometry" />
        </mxCell>
        <mxCell id="sYzgEpTlX_4qCBjDsul3-31" value="Sim" style="text;html=1;align=center;verticalAlign=middle;resizable=0;points=[];autosize=1;strokeColor=none;fillColor=none;" vertex="1" parent="WIyWlLk6GJQsqaUBKTNV-1">
          <mxGeometry x="230" y="665" width="40" height="30" as="geometry" />
        </mxCell>
        <mxCell id="sYzgEpTlX_4qCBjDsul3-36" style="edgeStyle=orthogonalEdgeStyle;rounded=0;orthogonalLoop=1;jettySize=auto;html=1;exitX=1;exitY=0.25;exitDx=0;exitDy=0;" edge="1" parent="WIyWlLk6GJQsqaUBKTNV-1" source="sYzgEpTlX_4qCBjDsul3-34">
          <mxGeometry relative="1" as="geometry">
            <mxPoint x="220" y="870" as="targetPoint" />
            <Array as="points">
              <mxPoint x="220" y="798" />
            </Array>
          </mxGeometry>
        </mxCell>
        <mxCell id="sYzgEpTlX_4qCBjDsul3-34" value="" style="shape=offPageConnector;whiteSpace=wrap;html=1;rotation=90;size=0.38857142857142857;" vertex="1" parent="WIyWlLk6GJQsqaUBKTNV-1">
          <mxGeometry x="160" y="670" width="80" height="175" as="geometry" />
        </mxCell>
        <mxCell id="sYzgEpTlX_4qCBjDsul3-35" value="Se cadatre" style="text;html=1;align=center;verticalAlign=middle;resizable=0;points=[];autosize=1;strokeColor=none;fillColor=none;" vertex="1" parent="WIyWlLk6GJQsqaUBKTNV-1">
          <mxGeometry x="180" y="742.5" width="80" height="30" as="geometry" />
        </mxCell>
        <mxCell id="sYzgEpTlX_4qCBjDsul3-37" value="" style="ellipse;whiteSpace=wrap;html=1;" vertex="1" parent="WIyWlLk6GJQsqaUBKTNV-1">
          <mxGeometry x="180" y="890" width="70" height="40" as="geometry" />
        </mxCell>
        <mxCell id="sYzgEpTlX_4qCBjDsul3-38" value="FIM" style="text;html=1;align=center;verticalAlign=middle;resizable=0;points=[];autosize=1;strokeColor=none;fillColor=none;" vertex="1" parent="WIyWlLk6GJQsqaUBKTNV-1">
          <mxGeometry x="195" y="895" width="40" height="30" as="geometry" />
        </mxCell>
      </root>
    </mxGraphModel>
  </diagram>
</mxfile>
